<svg width="17" height="17" viewBox="0 0 17 17" fill="none" xmlns="http://www.w3.org/2000/svg">
<g clip-path="url(#clip0_34_824)">
<path d="M9.18082 4.31794C9.18082 4.48169 9.18082 5.01541 9.18082 5.77366H11.7878L11.5052 8.09763H9.18082C9.18082 11.6816 9.18082 16.4843 9.18082 16.4843H6.09563C6.09563 16.4843 6.09563 11.7452 6.09563 8.09763H4.48804V5.77366H6.09563C6.09563 4.85204 6.09563 4.19669 6.09563 4.01422C6.09563 3.14485 6.03013 2.73235 6.39954 2.05866C6.76913 1.385 7.81163 0.494567 9.61472 0.516005C11.4183 0.538224 12.1785 0.711724 12.1785 0.711724L11.7878 3.1885C11.7878 3.1885 10.6362 2.88441 10.0709 2.99279C9.50635 3.10119 9.18082 3.44894 9.18082 4.31794Z" fill="white"/>
</g>
<defs>
<clipPath id="clip0_34_824">
<rect width="16" height="16" fill="white" transform="translate(0.333252 0.5)"/>
</clipPath>
</defs>
</svg>
