<svg width="16" height="17" viewBox="0 0 16 17" fill="none" xmlns="http://www.w3.org/2000/svg">
<g clip-path="url(#clip0_34_826)">
<path d="M7.99992 15.1666C6.57042 15.1666 5.54174 15.1659 4.73972 15.0882C3.94689 15.0113 3.43972 14.8636 3.03497 14.6093C2.57237 14.3186 2.1812 13.9275 1.89052 13.4649C1.63628 13.0602 1.4885 12.553 1.41174 11.7602C1.33396 10.9582 1.33325 9.92947 1.33325 8.49998C1.33325 7.07048 1.33396 6.0418 1.41174 5.23978C1.4885 4.44695 1.63628 3.93978 1.89052 3.53503C2.18119 3.07242 2.57236 2.68125 3.03497 2.39059C3.43972 2.13634 3.94689 1.98857 4.73972 1.9118C5.54164 1.83402 6.57032 1.83331 7.99992 1.83331C9.42941 1.83331 10.4581 1.83402 11.2601 1.9118C12.0529 1.98857 12.5601 2.13634 12.9649 2.39059C13.4274 2.68126 13.8186 3.07243 14.1092 3.53503C14.3636 3.93978 14.5112 4.44695 14.5881 5.23978C14.6659 6.0418 14.6666 7.07048 14.6666 8.49998C14.6666 9.92947 14.6659 10.9582 14.5881 11.7602C14.5112 12.553 14.3636 13.0602 14.1092 13.4649C13.8186 13.9275 13.4274 14.3186 12.9649 14.6093C12.5601 14.8636 12.0529 15.0113 11.2601 15.0882C10.4581 15.1659 9.42941 15.1666 7.99992 15.1666Z" fill="white" stroke="white" stroke-width="2"/>
<path d="M7.99992 11.8333C9.47268 11.8333 10.6666 10.6394 10.6666 9.16667C10.6666 7.69391 9.47268 6.5 7.99992 6.5C6.52716 6.5 5.33325 7.69391 5.33325 9.16667C5.33325 10.6394 6.52716 11.8333 7.99992 11.8333Z" fill="white" stroke="#53B175" stroke-width="2"/>
<path d="M11.25 6C11.6642 6 12 5.66421 12 5.25C12 4.83579 11.6642 4.5 11.25 4.5C10.8358 4.5 10.5 4.83579 10.5 5.25C10.5 5.66421 10.8358 6 11.25 6Z" fill="#53B175"/>
</g>
<defs>
<clipPath id="clip0_34_826">
<rect width="16" height="16" fill="white" transform="translate(0 0.5)"/>
</clipPath>
</defs>
</svg>
