<svg width="20" height="16" viewBox="0 0 20 16" fill="none" xmlns="http://www.w3.org/2000/svg">
<path d="M19.4701 7.18494L18.4401 5.75494C18.2095 5.43115 17.9051 5.167 17.5521 4.98439C17.199 4.80178 16.8075 4.70598 16.4101 4.70494H12.0301V2.56494C12.0301 1.9019 11.7667 1.26602 11.2978 0.797174C10.829 0.328333 10.1931 0.0649414 9.53006 0.0649414H2.56006C1.89759 0.0667886 1.26277 0.330774 0.794332 0.799215C0.325891 1.26766 0.0619058 1.90247 0.0600586 2.56494V12.5049C0.0600586 12.9028 0.218094 13.2843 0.499398 13.5656C0.780703 13.8469 1.16223 14.0049 1.56006 14.0049H2.78006C2.85557 14.54 3.12176 15.0297 3.52966 15.3841C3.93756 15.7385 4.45972 15.9336 5.00006 15.9336C5.54039 15.9336 6.06255 15.7385 6.47045 15.3841C6.87835 15.0297 7.14455 14.54 7.22006 14.0049H12.7801C12.8556 14.54 13.1218 15.0297 13.5297 15.3841C13.9376 15.7385 14.4597 15.9336 15.0001 15.9336C15.5404 15.9336 16.0626 15.7385 16.4705 15.3841C16.8784 15.0297 17.1445 14.54 17.2201 14.0049H18.4401C18.8379 14.0049 19.2194 13.8469 19.5007 13.5656C19.782 13.2843 19.9401 12.9028 19.9401 12.5049V8.63494C19.9376 8.11455 19.7734 7.60781 19.4701 7.18494ZM5.00006 14.9349C4.75283 14.9349 4.51116 14.8616 4.3056 14.7243C4.10003 14.5869 3.93982 14.3917 3.84521 14.1633C3.7506 13.9349 3.72585 13.6836 3.77408 13.4411C3.82231 13.1986 3.94136 12.9759 4.11618 12.8011C4.29099 12.6262 4.51372 12.5072 4.7562 12.459C4.99867 12.4107 5.25001 12.4355 5.47841 12.5301C5.70682 12.6247 5.90204 12.7849 6.0394 12.9905C6.17675 13.196 6.25006 13.4377 6.25006 13.6849C6.25006 14.0165 6.11836 14.3344 5.88394 14.5688C5.64952 14.8032 5.33158 14.9349 5.00006 14.9349ZM11.0301 13.0049H7.15006C7.00446 12.5491 6.71772 12.1513 6.33126 11.869C5.9448 11.5867 5.47862 11.4346 5.00006 11.4346C4.5215 11.4346 4.05532 11.5867 3.66886 11.869C3.2824 12.1513 2.99566 12.5491 2.85006 13.0049H1.56006C1.42745 13.0049 1.30027 12.9523 1.20651 12.8585C1.11274 12.7647 1.06006 12.6375 1.06006 12.5049V2.56494C1.06006 2.16712 1.21809 1.78559 1.4994 1.50428C1.7807 1.22298 2.16223 1.06494 2.56006 1.06494H9.53006C9.92788 1.06494 10.3094 1.22298 10.5907 1.50428C10.872 1.78559 11.0301 2.16712 11.0301 2.56494V13.0049ZM15.0001 14.9349C14.7528 14.9349 14.5112 14.8616 14.3056 14.7243C14.1 14.5869 13.9398 14.3917 13.8452 14.1633C13.7506 13.9349 13.7258 13.6836 13.7741 13.4411C13.8223 13.1986 13.9414 12.9759 14.1162 12.8011C14.291 12.6262 14.5137 12.5072 14.7562 12.459C14.9987 12.4107 15.25 12.4355 15.4784 12.5301C15.7068 12.6247 15.902 12.7849 16.0394 12.9905C16.1767 13.196 16.2501 13.4377 16.2501 13.6849C16.2501 14.0165 16.1184 14.3344 15.8839 14.5688C15.6495 14.8032 15.3316 14.9349 15.0001 14.9349ZM18.9401 12.5049C18.9401 12.6375 18.8874 12.7647 18.7936 12.8585C18.6998 12.9523 18.5727 13.0049 18.4401 13.0049H17.1501C17.0045 12.5491 16.7177 12.1513 16.3313 11.869C15.9448 11.5867 15.4786 11.4346 15.0001 11.4346C14.5215 11.4346 14.0553 11.5867 13.6689 11.869C13.2824 12.1513 12.9957 12.5491 12.8501 13.0049H12.0301V5.70494H16.4101C16.6486 5.70654 16.8835 5.76443 17.0955 5.8739C17.3075 5.98337 17.4906 6.14134 17.6301 6.33494L18.6601 7.76494C18.84 8.01955 18.9377 8.32316 18.9401 8.63494V12.5049Z" fill="white"/>
<path d="M16.0291 8.20483H14.0291C13.8964 8.20483 13.7693 8.15216 13.6755 8.05839C13.5817 7.96462 13.5291 7.83744 13.5291 7.70483C13.5291 7.57223 13.5817 7.44505 13.6755 7.35128C13.7693 7.25751 13.8964 7.20483 14.0291 7.20483H16.0291C16.1617 7.20483 16.2888 7.25751 16.3826 7.35128C16.4764 7.44505 16.5291 7.57223 16.5291 7.70483C16.5291 7.83744 16.4764 7.96462 16.3826 8.05839C16.2888 8.15216 16.1617 8.20483 16.0291 8.20483Z" fill="white"/>
</svg>
