<svg width="16" height="15" viewBox="0 0 16 15" fill="none" xmlns="http://www.w3.org/2000/svg">
<path fill-rule="evenodd" clip-rule="evenodd" d="M16 2.41193C15.4121 2.67965 14.7791 2.8607 14.1152 2.9416C14.7932 2.52556 15.3135 1.86588 15.5586 1.08004C14.9238 1.46525 14.2222 1.7455 13.4728 1.89573C12.8755 1.24183 12.0218 0.833496 11.0771 0.833496C9.26548 0.833496 7.79574 2.34066 7.79574 4.19933C7.79574 4.4632 7.82391 4.71938 7.88026 4.96592C5.15208 4.82531 2.73381 3.48668 1.11381 1.44792C0.831132 1.94677 0.669596 2.52556 0.669596 3.14191C0.669596 4.30912 1.24905 5.33958 2.12995 5.9434C1.59277 5.92703 1.08563 5.77391 0.642365 5.52352V5.56493C0.642365 7.19632 1.77402 8.5571 3.27663 8.86527C3.00147 8.94424 2.71128 8.98373 2.41169 8.98373C2.20039 8.98373 1.99378 8.96351 1.79374 8.92402C2.21166 10.2607 3.42313 11.2344 4.86001 11.2604C3.7368 12.1637 2.32059 12.702 0.783234 12.702C0.518398 12.702 0.256383 12.6866 0 12.6558C1.45284 13.6092 3.17896 14.1668 5.03187 14.1668C11.0705 14.1668 14.3715 9.03862 14.3715 4.59033C14.3715 4.44394 14.3687 4.29756 14.3631 4.15407C15.0045 3.67929 15.5614 3.08702 16 2.41193Z" fill="white"/>
</svg>
